<svg width="52.000000" height="52.000000" viewBox="0 0 52 52" fill="none" xmlns="http://www.w3.org/2000/svg" xmlns:xlink="http://www.w3.org/1999/xlink">
	<desc>
			Created with Pixso.
	</desc>
	<defs>
		<clipPath id="clip1_14">
			<rect id="instagram" width="24.000000" height="24.000000" transform="translate(14.000000 14.000000)" fill="white"/>
		</clipPath>
		<clipPath id="clip1_12">
			<rect id="2" width="52.000000" height="52.000000" fill="white"/>
		</clipPath>
	</defs>
	<g clip-path="url(#clip1_12)">
		<path id="Круг" d="M50.9999 25.9998C50.9999 12.1929 39.8071 1 26 1C12.1929 1 1.00001 12.1929 1.00001 25.9998C1.00001 39.8071 12.1929 51.0002 26 51.0002C39.8071 51.0002 50.9999 39.8071 50.9999 25.9998ZM47.316 17.1709Q48.9999 21.2366 48.9999 25.9998Q48.9999 30.7634 47.3158 34.8293Q45.6316 38.8953 42.2634 42.2637Q38.8949 45.6321 34.8288 47.3164Q30.7631 49.0002 26 49.0002Q21.2368 49.0002 17.1711 47.3164Q13.105 45.6321 9.73656 42.2637Q6.36832 38.8953 4.68418 34.8293Q3.00001 30.7634 3.00001 25.9998Q3.00001 21.2366 4.68401 17.1709Q6.36814 13.105 9.73653 9.73657Q13.1047 6.36841 17.1705 4.68433Q21.2364 3 26 3Q30.7635 3 34.8294 4.68433Q38.8952 6.36841 42.2634 9.73657Q45.6318 13.105 47.316 17.1709Z" fill-rule="evenodd" fill="#FFFFFF"/>
		<g clip-path="url(#clip1_14)">
			<path id="Vector" d="M37.9765 21.0562C37.9203 19.7808 37.7141 18.9041 37.4187 18.1445C37.1139 17.3381 36.6451 16.6162 36.0308 16.0161C35.4307 15.4065 34.704 14.9329 33.907 14.6331C33.1429 14.3376 32.2708 14.1313 30.9956 14.0752C29.7108 14.0142 29.303 14 26.0445 14C22.7861 14 22.3782 14.0142 21.0982 14.0703C19.823 14.1265 18.9463 14.333 18.1868 14.6282C17.3803 14.9329 16.6583 15.4019 16.0582 16.0161C15.4487 16.6162 14.9753 17.3428 14.6751 18.1399C14.3797 18.9041 14.1735 19.7761 14.1173 21.0513C14.0563 22.3359 14.0422 22.7439 14.0422 26.0024C14.0422 29.2607 14.0563 29.6687 14.1125 30.9487C14.1687 32.2239 14.3751 33.1006 14.6705 33.8601C14.9753 34.6665 15.4487 35.3884 16.0582 35.9888C16.6583 36.5981 17.3851 37.0718 18.1821 37.3718C18.9463 37.6672 19.8183 37.8733 21.0937 37.9297C22.3735 37.9861 22.7815 38 26.0399 38C29.2984 38 29.7062 37.9861 30.9862 37.9297C32.2614 37.8733 33.1381 37.6672 33.8976 37.3718C35.5105 36.748 36.7857 35.4729 37.4093 33.8601C37.7046 33.0959 37.911 32.2239 37.9672 30.9487C38.0234 29.6687 38.0375 29.2607 38.0375 26.0024C38.0375 22.7439 38.0328 22.3359 37.9765 21.0562ZM35.8153 30.8547C35.7636 32.0269 35.5668 32.6599 35.4027 33.0818C34.9994 34.1274 34.1696 34.9573 33.124 35.3606C32.7021 35.5247 32.0646 35.7214 30.897 35.7729C29.6312 35.8293 29.2515 35.8433 26.0493 35.8433C22.8471 35.8433 22.4626 35.8293 21.2013 35.7729C20.0292 35.7214 19.3963 35.5247 18.9743 35.3606C18.454 35.1682 17.9804 34.8635 17.596 34.4648C17.1975 34.0757 16.8928 33.6069 16.7005 33.0867C16.5364 32.6646 16.3395 32.0269 16.288 30.8596C16.2316 29.5938 16.2177 29.2139 16.2177 26.0117C16.2177 22.8096 16.2316 22.425 16.288 21.1638C16.3395 19.9919 16.5364 19.3589 16.7005 18.937C16.8928 18.4165 17.1975 17.9431 17.6008 17.5583C17.9898 17.1599 18.4586 16.8552 18.9791 16.6631C19.4011 16.499 20.0388 16.302 21.2061 16.2505C22.472 16.1943 22.8518 16.1802 26.0539 16.1802C29.2608 16.1802 29.6405 16.1943 30.9018 16.2505C32.0739 16.302 32.7068 16.499 33.1288 16.6631C33.6491 16.8552 34.1227 17.1599 34.5071 17.5583C34.9056 17.9475 35.2104 18.4165 35.4027 18.937C35.5668 19.3589 35.7636 19.9963 35.8153 21.1638C35.8715 22.4297 35.8856 22.8096 35.8856 26.0117C35.8856 29.2139 35.8715 29.5889 35.8153 30.8547Z" fill-rule="nonzero" fill="#FFFFFF"/>
			<path id="Vector" d="M26.0445 19.8372C22.6408 19.8372 19.8792 22.5986 19.8792 26.0024C19.8792 29.4062 22.6408 32.1677 26.0445 32.1677C29.4483 32.1677 32.2097 29.4062 32.2097 26.0024C32.2097 22.5986 29.4483 19.8372 26.0445 19.8372ZM26.0445 30.0017C23.8363 30.0017 22.0452 28.2107 22.0452 26.0024C22.0452 23.7942 23.8363 22.0032 26.0445 22.0032C28.2528 22.0032 30.0437 23.7942 30.0437 26.0024C30.0437 28.2107 28.2528 30.0017 26.0445 30.0017Z" fill-rule="nonzero" fill="#FFFFFF"/>
			<path id="Vector" d="M33.893 19.593C33.893 20.3879 33.2485 21.0325 32.4535 21.0325C31.6587 21.0325 31.0142 20.3879 31.0142 19.593C31.0142 18.7981 31.6587 18.1538 32.4535 18.1538C33.2485 18.1538 33.893 18.7981 33.893 19.593Z" fill-rule="nonzero" fill="#FFFFFF"/>
		</g>
	</g>
</svg>
