<svg width="53.000000" height="52.000000" viewBox="0 0 53 52" fill="none" xmlns="http://www.w3.org/2000/svg" xmlns:xlink="http://www.w3.org/1999/xlink">
	<desc>
			Created with Pixso.
	</desc>
	<defs>
		<clipPath id="clip1_10">
			<rect id="pinterest" width="24.000000" height="24.000000" transform="translate(15.000000 14.000000)" fill="white"/>
		</clipPath>
		<clipPath id="clip1_8">
			<rect id="3" width="53.000000" height="52.000000" fill="white"/>
		</clipPath>
	</defs>
	<g clip-path="url(#clip1_8)">
		<path id="Круг" d="M52.0001 25.9998C52.0001 12.1929 40.807 1 27.0002 1C13.1927 1 1.99985 12.1929 1.99985 25.9998C1.99985 39.8071 13.1927 51.0002 27.0002 51.0002C40.807 51.0002 52.0001 39.8071 52.0001 25.9998ZM48.3163 17.1714Q50.0001 21.2368 50.0001 25.9998Q50.0001 30.7632 48.316 34.8289Q46.6319 38.895 43.2635 42.2637Q39.8947 45.6323 35.8282 47.3167Q31.7628 49.0002 27.0002 49.0002Q22.2366 49.0002 18.1707 47.3162Q14.1047 45.6318 10.7364 42.2637Q7.36818 38.8953 5.68404 34.8293Q3.99985 30.7634 3.99985 25.9998Q3.99985 21.2366 5.68385 17.1709Q7.368 13.105 10.7364 9.73657Q14.1044 6.36865 18.17 4.68457Q22.2362 3 27.0002 3Q31.7632 3 35.8288 4.68408Q39.8949 6.36816 43.2635 9.73657Q46.6321 13.1052 48.3163 17.1714Z" fill-rule="evenodd" fill="#FFFFFF"/>
		<g clip-path="url(#clip1_10)">
			<path id="Vector" d="M27.326 14C20.747 14.001 17.25 18.2161 17.25 22.812C17.25 24.9431 18.441 27.6021 20.348 28.4451C20.892 28.6899 20.82 28.3911 21.288 26.6011C21.325 26.4519 21.306 26.323 21.186 26.1841C18.46 23.031 20.654 16.5491 26.937 16.5491C36.03 16.5491 34.331 29.1311 28.519 29.1311C27.021 29.1311 25.905 27.9551 26.258 26.5C26.686 24.7671 27.524 22.9041 27.524 21.655C27.524 18.5071 22.834 18.9741 22.834 23.145C22.834 24.4341 23.29 25.304 23.29 25.304C23.29 25.304 21.781 31.3999 21.501 32.5391C21.027 34.467 21.565 37.5879 21.612 37.8569C21.641 38.0049 21.807 38.052 21.9 37.9299C22.049 37.7351 23.873 35.1331 24.384 33.252C24.57 32.5669 25.333 29.7871 25.333 29.7871C25.836 30.6951 27.286 31.4551 28.831 31.4551C33.427 31.4551 36.749 27.415 36.749 22.4021C36.733 17.5959 32.62 14 27.326 14L27.326 14Z" fill-rule="nonzero" fill="#FFFFFF"/>
		</g>
	</g>
</svg>
